<svg width="28" height="40" viewBox="0.18 0.59 25.53 37.28" fill="none" xmlns="http://www.w3.org/2000/svg">
<path d="M15.7114 24.4908C19.168 23.8423 25.7109 21.3199 24.2295 16.4176C24.0135 15.6718 23.0444 14.1415 20.8963 13.9859C21.0198 12.2675 20.4334 8.5 17.1002 7.17718C17.1928 6.91779 17.4335 6.41848 17.6557 6.49629C17.9335 6.59356 20.8037 5.81541 18.9519 2.70285C18.4273 2.15166 16.878 1.61345 14.8781 3.87006C14.446 4.38882 13.5078 5.7376 13.2115 6.98263C12.409 7.04746 10.6746 7.27443 10.1561 7.66351C8.45862 6.07479 4.47115 3.65607 2.1009 6.69082C1.73055 7.40415 1.48981 9.00576 3.48971 9.70608C3.79833 9.80341 4.71192 9.80341 5.89702 9.02525C6.2147 9.02525 6.74496 9.12832 7.28583 9.44055C5.2798 11.8959 2.39719 17.9738 6.9155 22.6427C6.23649 22.9468 4.60078 23.8545 3.48971 25.0523C3.03277 23.6174 1.9036 20.7852 1.04285 20.9349C0.182107 21.0846 0.38534 23.2431 0.594548 24.3036C0.851609 25.333 1.51277 27.5975 2.1009 28.421C2.20423 31.0723 3.38588 36.4311 7.28583 36.6556C8.0142 36.6244 9.27374 36.0941 8.4847 34.2227L10.5469 33.6612C10.3377 34.5346 10.0089 36.3562 10.3676 36.6556C10.8159 37.0299 12.8781 37.8721 13.954 36.9364C15.0299 36.0006 15.5931 34.7841 14.4023 34.2227C14.3089 34.1786 14.2202 34.1414 14.1361 34.1103C14.734 34.306 15.3603 34.5083 15.6575 34.5969C16.2852 34.4098 17.5404 33.6612 17.5404 32.164C17.5404 30.6668 16.2254 30.9163 15.5679 31.2282C16.2314 29.8558 17.189 26.5869 15.7114 24.4908Z" fill="#F7C645"/>
<path d="M7.28583 9.44055C6.74496 9.12832 6.2147 9.02525 5.89702 9.02525C4.71192 9.80341 3.79832 9.80341 3.48971 9.70608C1.48982 9.00576 1.73055 7.40415 2.1009 6.69082C4.47115 3.65607 8.45862 6.07479 10.1561 7.66351C10.6746 7.27443 12.409 7.04746 13.2115 6.98263C13.5078 5.7376 14.446 4.38882 14.8781 3.87006C16.878 1.61345 18.4273 2.15166 18.9519 2.70285C20.8037 5.81541 17.9335 6.59356 17.6557 6.49629C17.4335 6.41848 17.1928 6.91779 17.1002 7.17718C20.4334 8.5 21.0198 12.2675 20.8963 13.9859C23.0444 14.1415 24.0135 15.6718 24.2295 16.4176C25.7109 21.3199 19.168 23.8423 15.7114 24.4908C17.189 26.5869 16.2314 29.8558 15.5679 31.2282C16.2254 30.9163 17.5404 30.6668 17.5404 32.164C17.5404 33.6612 16.2852 34.4098 15.6575 34.5969C15.1555 34.4472 13.7149 33.9731 13.0574 33.7548L13.2115 31.0411L12.8781 34.2227C12.9892 34.0355 13.4497 33.7735 14.4023 34.2227C15.5931 34.7841 15.0299 36.0006 13.954 36.9364C12.8781 37.8721 10.8159 37.0299 10.3676 36.6556C10.0089 36.3562 10.3377 34.5346 10.5469 33.6612L8.4847 34.2227C9.27373 36.0941 8.0142 36.6244 7.28583 36.6556C3.38588 36.4311 2.20424 31.0723 2.1009 28.421C1.51277 27.5975 0.851609 25.333 0.594548 24.3036C0.38534 23.2431 0.182107 21.0846 1.04285 20.9349C1.9036 20.7852 3.03277 23.6174 3.48971 25.0523C4.60078 23.8545 6.23649 22.9468 6.9155 22.6427C2.39719 17.9738 5.2798 11.8959 7.28583 9.44055ZM7.28583 9.44055C7.79585 9.73497 8.31521 10.2153 8.67465 10.9706C8.55121 10.5869 8.10059 9.74374 7.28583 9.44055Z" stroke="black"/>
<path d="M14.6315 11.8846C13.2603 12.4459 13.9917 14.9715 14.6315 15.7198C14.4487 15.0651 14.2476 13.6807 14.9058 13.3813C15.564 13.082 15.9723 14.0049 16.0942 14.5038C15.8748 12.1091 15.0277 11.7599 14.6315 11.8846Z" fill="black"/>
<path d="M18.422 11.4461C17.5493 11.758 18.0147 13.1611 18.422 13.5768C18.3056 13.2131 18.1776 12.4439 18.5964 12.2776C19.0153 12.1114 19.2751 12.6241 19.3527 12.9012C19.2131 11.5708 18.674 11.3768 18.422 11.4461Z" fill="black"/>
<path d="M20.2773 16.3965C21.3003 15.7247 21.8402 15.93 21.9822 16.1166C22.3233 16.3965 22.4085 18.1697 21.215 18.4496C20.2603 18.6736 19.6237 18.1697 19.4249 17.8897C19.2828 17.672 19.2544 17.0685 20.2773 16.3965Z" fill="black"/>
<path d="M8.55871 34.1484C8.02128 34.0485 6.8615 33.6084 6.52209 32.6484" stroke="black" stroke-width="1.2" stroke-linecap="round"/>
<path d="M19.5562 20.0946C18.7363 20.6435 16.6922 21.2655 15.0756 19.3628" stroke="black" stroke-linecap="round"/>
</svg>