<svg
  viewBox="0 0 100 100"
  xmlns="http://www.w3.org/2000/svg"
>
  <style>
    path { fill: #000; }
    @media (prefers-color-scheme: dark) {
      path { fill: #fff; }
    }
  </style>
  <path
    d="M95.3046 50.2566C95.3046 50.7419 95.2977 51.2271 95.2839 51.7123H72.1066V50.6518H49.7989C49.7989 50.4299 49.8058 50.2081 49.8058 49.9932C49.8058 49.7783 49.8058 49.5496 49.7989 49.3347H72.1066V48.2811H95.2632C95.2908 48.9396 95.3046 49.5981 95.3046 50.2566ZM49.4055 45.4806L71.2369 42.7842L71.368 43.8378L94.4212 40.9888C94.2003 39.852 93.938 38.7291 93.6412 37.6269L70.947 40.4343L71.0782 41.4879L49.1432 44.1982C49.2398 44.628 49.3295 45.0578 49.4055 45.4945V45.4806ZM48.2666 41.2384L69.1318 36.0049L69.3871 37.0308L91.5292 31.4784C91.0736 30.404 90.5836 29.3434 90.059 28.3106L68.5658 33.7035L68.8212 34.7294L47.7835 40.0114C47.956 40.4204 48.1148 40.8294 48.2666 41.2453V41.2384ZM46.4168 37.2664L65.9223 29.8702L66.295 30.8615L86.9324 23.0355C86.2629 22.0511 85.5588 21.0946 84.8134 20.1657L65.0871 27.6451L65.4598 28.6363L45.7197 36.1227C45.9613 36.497 46.196 36.8783 46.4168 37.2664ZM43.8561 33.5926L61.0839 24.5743L61.567 25.517L80.6169 15.5422C79.7403 14.6896 78.8292 13.8785 77.8906 13.0953L59.9864 22.467L60.4696 23.4098L42.952 32.5805C43.2557 32.9133 43.5593 33.246 43.8492 33.5926H43.8561ZM39.7011 29.6276L55.2999 19.6666L55.8659 20.5608L73.0798 9.56697C71.9961 8.87379 70.8918 8.22913 69.7529 7.62607L54.0368 17.6633L54.6028 18.5575L38.5553 28.8027C38.9487 29.0661 39.3283 29.3434 39.708 29.6276H39.7011ZM36.0153 27.3124L49.088 16.5473L49.7575 17.3652L64.4797 5.23459C63.2304 4.7563 61.9466 4.32653 60.649 3.95221L47.5902 14.7104L48.2597 15.5283L34.7108 26.6885C35.1526 26.8826 35.5874 27.0906 36.0153 27.3124ZM31.1355 25.4061L41.4611 15.0847L42.1996 15.8333L55.3206 2.73915C53.8988 2.50347 52.4562 2.33017 50.993 2.21926L39.8046 13.4003L40.5431 14.1489L29.6378 25.0457C30.1416 25.1497 30.6386 25.2675 31.1355 25.4061ZM25.4275 24.5397L33.6617 14.5163L34.4762 15.1887L45.1952 2.14301C43.5663 2.21926 41.9581 2.37869 40.3775 2.61437L31.8395 13.0051L32.654 13.6775L23.7364 24.5327C23.9849 24.5258 24.2403 24.5189 24.4888 24.5189C24.8063 24.5189 25.1169 24.5189 25.4275 24.5327V24.5397ZM20.4924 24.8377L26.8355 14.9807L27.719 15.556L35.3872 3.63335C33.6341 4.09085 31.9224 4.64539 30.252 5.29005L24.8546 13.6845L25.7381 14.2598L18.7117 25.1843C19.2984 25.0457 19.8919 24.9278 20.4924 24.8308V24.8377ZM15.0121 26.3697L19.5744 17.7812L20.4993 18.2802L26.5387 6.91902C24.5992 7.86868 22.7356 8.94311 20.9549 10.1354L17.4831 16.6651L18.4149 17.1642L13.045 27.2708C13.68 26.945 14.3357 26.6469 15.0052 26.3766L15.0121 26.3697ZM11.0779 28.3868L13.0174 22.8552L14.0113 23.2088L17.7799 12.4645C15.868 13.9895 14.0734 15.6531 12.41 17.4484L10.788 22.0719L11.7819 22.4255L9.24196 29.6623C9.83554 29.2117 10.4429 28.7889 11.071 28.3937L11.0779 28.3868ZM6.23953 32.3449L7.09539 28.3244L8.12381 28.5462L9.84934 20.4499C8.03408 22.7651 6.42589 25.2536 5.05236 27.8808L5.8185 28.0471L4.24481 34.7017C4.8591 33.8768 5.52861 33.0866 6.23953 32.3449ZM2.68493 37.0446V31.721C1.40113 35.1245 0.490051 39.3598 0 43.512C0.600486 41.2106 1.51157 39.041 2.68493 37.0446ZM0.0345107 56.6131C0.538366 60.1553 1.42184 63.5726 2.65042 66.8236V62.8933C1.51847 60.9524 0.628094 58.8451 0.0345107 56.6131ZM4.41046 65.5205L5.78399 71.9532L5.01785 72.1195C6.39137 74.7536 7.99957 77.2352 9.81483 79.5504L8.0893 71.4541L7.06088 71.6759L6.19121 67.6069C5.56312 66.9415 4.96263 66.2483 4.41046 65.5135V65.5205ZM9.19364 70.3034L11.7474 77.5818L10.7535 77.9353L12.3755 82.5588C14.0389 84.3542 15.8335 86.0178 17.7454 87.5428L13.9768 76.7985L12.9829 77.152L11.0365 71.5927C10.4084 71.1907 9.79413 70.7678 9.20054 70.3173L9.19364 70.3034ZM13.0036 72.7087L18.3873 82.843L17.4555 83.3421L20.9273 89.8719C22.708 91.0641 24.5716 92.1386 26.5111 93.0882L20.4717 81.727L19.5399 82.2261L14.9638 73.6168C14.2943 73.3465 13.6386 73.0415 12.9967 72.7157L13.0036 72.7087ZM18.6703 74.8021L25.7035 85.7405L24.8201 86.3159L30.2175 94.7103C31.8878 95.3549 33.5996 95.9095 35.3527 96.367L27.6845 84.4443L26.801 85.0196L20.451 75.1487C19.8505 75.0517 19.25 74.9338 18.6634 74.7952L18.6703 74.8021ZM23.695 75.4676L32.6126 86.3228L31.7981 86.9952L40.3361 97.3859C41.9166 97.6216 43.5248 97.781 45.1537 97.8573L34.4347 84.8047L33.6203 85.4771L25.386 75.4537C25.0893 75.4676 24.7856 75.4676 24.4819 75.4676C24.2196 75.4676 23.9504 75.4676 23.6881 75.4537L23.695 75.4676ZM29.6101 74.9546L40.5086 85.8445L39.7701 86.5931L50.9584 97.7741C52.4217 97.6632 53.8642 97.4899 55.2861 97.2542L42.172 84.1531L41.4266 84.9087L31.1079 74.5942C30.6179 74.7259 30.114 74.8507 29.6101 74.9546ZM34.6901 73.3257L48.2252 84.4789L47.5557 85.2969L60.6145 96.055C61.9121 95.6807 63.1959 95.251 64.4452 94.7727L49.7161 82.642L49.0465 83.46L35.9877 72.7018C35.5598 72.9236 35.125 73.1316 34.6832 73.3257H34.6901ZM38.5277 71.2045L54.5545 81.4428L53.9885 82.337L69.7046 92.3742C70.8435 91.7712 71.9547 91.1196 73.0315 90.4334L55.8175 79.4395L55.2516 80.3337L39.6735 70.3866C39.2938 70.6708 38.9142 70.9481 38.5208 71.2115L38.5277 71.2045ZM42.9451 67.4336L60.442 76.5905L59.9588 77.5333L77.8629 86.9051C78.8016 86.1218 79.7127 85.3107 80.5893 84.4581L61.5394 74.4833L61.0563 75.426L43.8492 66.4216C43.5593 66.7682 43.2626 67.1078 42.952 67.4336H42.9451ZM45.7128 63.8846L65.4253 71.364L65.0526 72.3552L84.7789 79.8346C85.5174 78.9058 86.2214 77.9492 86.8978 76.9649L66.2605 69.1389L65.8878 70.1301L46.4099 62.7408C46.1891 63.129 45.9544 63.5102 45.7128 63.8846ZM47.7766 60.0027L68.7797 65.2709L68.5244 66.2968L90.0176 71.6898C90.5491 70.6569 91.0391 69.5964 91.4947 68.5219L69.3526 62.9696L69.0972 63.9955L48.2597 58.7689C48.1079 59.1848 47.9422 59.5938 47.7766 60.0027ZM49.1432 55.8159L71.0436 58.5193L70.9125 59.573L93.6067 62.3804C93.9035 61.2713 94.1658 60.1483 94.3867 59.0184L71.3335 56.1695L71.2024 57.2231L49.4055 54.5266C49.3295 54.9633 49.2398 55.3931 49.1432 55.8229V55.8159Z"
  />
</svg>
